<svg width="64" height="64" fill="none" xmlns="http://www.w3.org/2000/svg"><rect width="64" height="64" rx="16" fill="#1565D8" opacity=".06"/><path d="M31.5 15.063c-9.633 0-17.438 7.874-17.438 17.437 0 9.633 7.805 17.438 17.438 17.438 9.563 0 17.438-7.805 17.438-17.438 0-9.563-7.876-17.438-17.438-17.438zm11.46 8.085a14.452 14.452 0 0 1 3.376 9.282c-.492-.14-5.414-1.125-10.336-.492-.422-.985-.773-1.829-1.336-2.954 5.555-2.25 8.016-5.414 8.297-5.836zm-1.616-1.757c-.282.422-2.532 3.445-7.805 5.414-2.46-4.5-5.133-8.157-5.555-8.72 4.711-1.124 9.703.071 13.36 3.306zm-16.242-2.32c.421.562 3.093 4.218 5.554 8.648-6.96 1.828-13.078 1.828-13.781 1.758.984-4.57 4.078-8.438 8.227-10.407zm-8.508 13.5v-.493c.633.07 7.875.14 15.258-2.11.492.845.843 1.688 1.265 2.532-5.414 1.547-10.336 5.906-12.726 9.984-2.391-2.601-3.797-6.117-3.797-9.914zm5.695 11.742c1.617-3.165 5.836-7.313 11.813-9.352 2.109 5.414 2.953 9.984 3.164 11.32a14.895 14.895 0 0 1-14.977-1.968zm17.508.562c-.14-.844-.984-5.203-2.883-10.617 4.64-.703 8.719.492 9.281.633a15.182 15.182 0 0 1-6.398 9.984z" fill="#1565D8"/></svg>