<svg width="102" height="118" fill="none" xmlns="http://www.w3.org/2000/svg"><path opacity=".1" fill-rule="evenodd" clip-rule="evenodd" d="M102 3a3 3 0 1 1-6 0 3 3 0 0 1 6 0zm-3 19a3 3 0 1 0 0-6 3 3 0 0 0 0 6zm3 13a3 3 0 1 1-6 0 3 3 0 0 1 6 0zm-3 19a3 3 0 1 0 0-6 3 3 0 0 0 0 6zm3 13a3 3 0 1 1-6 0 3 3 0 0 1 6 0zm-3 19a3 3 0 1 0 0-6 3 3 0 0 0 0 6zm3 13a3 3 0 1 1-6 0 3 3 0 0 1 6 0zM3 118a3 3 0 1 0 0-6 3 3 0 0 0 0 6zm19-3a3 3 0 1 1-6 0 3 3 0 0 1 6 0zm13 3a3 3 0 1 0 0-6 3 3 0 0 0 0 6zm19-3a3 3 0 1 1-6 0 3 3 0 0 1 6 0zm13 3a3 3 0 1 0 0-6 3 3 0 0 0 0 6zm19-3a3 3 0 1 1-6 0 3 3 0 0 1 6 0zm16 0a3 3 0 1 1-6 0 3 3 0 0 1 6 0zm-19-13a3 3 0 1 0 0-6 3 3 0 0 0 0 6zm-13-3a3 3 0 1 1-6 0 3 3 0 0 1 6 0zm-19 3a3 3 0 1 0 0-6 3 3 0 0 0 0 6zm-13-3a3 3 0 1 1-6 0 3 3 0 0 1 6 0zm-19 3a3 3 0 1 0 0-6 3 3 0 0 0 0 6zM6 99a3 3 0 1 1-6 0 3 3 0 0 1 6 0zm80-16a3 3 0 1 1-6 0 3 3 0 0 1 6 0zm-19 3a3 3 0 1 0 0-6 3 3 0 0 0 0 6zm-13-3a3 3 0 1 1-6 0 3 3 0 0 1 6 0zm-19 3a3 3 0 1 0 0-6 3 3 0 0 0 0 6zm-13-3a3 3 0 1 1-6 0 3 3 0 0 1 6 0zM3 86a3 3 0 1 0 0-6 3 3 0 0 0 0 6zm80-16a3 3 0 1 0 0-6 3 3 0 0 0 0 6zm-13-3a3 3 0 1 1-6 0 3 3 0 0 1 6 0zm-19 3a3 3 0 1 0 0-6 3 3 0 0 0 0 6zm-13-3a3 3 0 1 1-6 0 3 3 0 0 1 6 0zm-19 3a3 3 0 1 0 0-6 3 3 0 0 0 0 6zM6 67a3 3 0 1 1-6 0 3 3 0 0 1 6 0zm80-16a3 3 0 1 1-6 0 3 3 0 0 1 6 0zm-19 3a3 3 0 1 0 0-6 3 3 0 0 0 0 6zm-13-3a3 3 0 1 1-6 0 3 3 0 0 1 6 0zm-19 3a3 3 0 1 0 0-6 3 3 0 0 0 0 6zm-13-3a3 3 0 1 1-6 0 3 3 0 0 1 6 0zM3 54a3 3 0 1 0 0-6 3 3 0 0 0 0 6zm80-16a3 3 0 1 0 0-6 3 3 0 0 0 0 6zm-13-3a3 3 0 1 1-6 0 3 3 0 0 1 6 0zm-19 3a3 3 0 1 0 0-6 3 3 0 0 0 0 6zm-13-3a3 3 0 1 1-6 0 3 3 0 0 1 6 0zm-19 3a3 3 0 1 0 0-6 3 3 0 0 0 0 6zM6 35a3 3 0 1 1-6 0 3 3 0 0 1 6 0zm80-16a3 3 0 1 1-6 0 3 3 0 0 1 6 0zm-19 3a3 3 0 1 0 0-6 3 3 0 0 0 0 6zm-13-3a3 3 0 1 1-6 0 3 3 0 0 1 6 0zm-19 3a3 3 0 1 0 0-6 3 3 0 0 0 0 6zm-13-3a3 3 0 1 1-6 0 3 3 0 0 1 6 0zM3 22a3 3 0 1 0 0-6 3 3 0 0 0 0 6zM83 6a3 3 0 1 0 0-6 3 3 0 0 0 0 6zM70 3a3 3 0 1 1-6 0 3 3 0 0 1 6 0zM51 6a3 3 0 1 0 0-6 3 3 0 0 0 0 6zM38 3a3 3 0 1 1-6 0 3 3 0 0 1 6 0zM19 6a3 3 0 1 0 0-6 3 3 0 0 0 0 6zM6 3a3 3 0 1 1-6 0 3 3 0 0 1 6 0z" fill="#5A7184"/></svg>