<svg width="64" height="64" fill="none" xmlns="http://www.w3.org/2000/svg"><rect width="64" height="64" rx="16" fill="#1565D8" opacity=".06"/><path d="M45.773 25.188c1.407-1.055 2.672-2.32 3.657-3.797a13.837 13.837 0 0 1-4.22 1.125c1.548-.914 2.673-2.32 3.235-4.078a15.592 15.592 0 0 1-4.64 1.828 7.384 7.384 0 0 0-5.414-2.32 7.382 7.382 0 0 0-7.383 7.382c0 .563.07 1.125.21 1.688a21.42 21.42 0 0 1-15.257-7.735c-.633 1.055-.984 2.32-.984 3.727a7.264 7.264 0 0 0 3.304 6.117c-1.195-.07-2.39-.352-3.375-.914v.07c0 3.586 2.531 6.54 5.906 7.242-.562.141-1.265.282-1.898.282-.492 0-.914-.07-1.406-.14.914 2.952 3.656 5.062 6.89 5.132-2.53 1.969-5.695 3.164-9.14 3.164-.633 0-1.195-.07-1.758-.14 3.234 2.109 7.102 3.304 11.32 3.304 13.57 0 20.953-11.18 20.953-20.953v-.985z" fill="#1565D8"/></svg>