<svg width="64" height="64" fill="none" xmlns="http://www.w3.org/2000/svg"><rect width="64" height="64" rx="16" fill="#1565D8" opacity=".06"/><path d="M50.352 23.29c-.422-1.688-1.758-3.024-3.375-3.446C43.953 19 32 19 32 19s-12.023 0-15.047.844c-1.617.422-2.953 1.758-3.375 3.445-.844 2.953-.844 9.281-.844 9.281s0 6.258.844 9.282c.422 1.687 1.758 2.953 3.375 3.375C19.977 46 32 46 32 46s11.953 0 14.977-.773c1.617-.422 2.953-1.688 3.375-3.375.843-3.024.843-9.282.843-9.282s0-6.328-.843-9.28zm-22.29 14.976V26.875l9.985 5.695-9.984 5.696z" fill="#1565D8"/></svg>